<svg viewBox="0 0 526 512" fill="none" xmlns="http://www.w3.org/2000/svg">
<g clip-path="url(#clip0)">
<path d="M175.64 412.262C175.64 414.379 173.205 416.073 170.135 416.073C166.641 416.391 164.206 414.697 164.206 412.262C164.206 410.144 166.641 408.45 169.711 408.45C172.887 408.133 175.64 409.827 175.64 412.262ZM142.714 407.497C141.973 409.615 144.09 412.05 147.267 412.685C150.019 413.744 153.195 412.685 153.831 410.568C154.466 408.45 152.454 406.015 149.278 405.062C146.525 404.321 143.455 405.38 142.714 407.497ZM189.509 405.698C186.439 406.439 184.321 408.45 184.639 410.885C184.957 413.003 187.709 414.379 190.885 413.638C193.956 412.897 196.073 410.885 195.755 408.768C195.438 406.756 192.579 405.38 189.509 405.698ZM259.172 0C112.329 0 0 111.482 0 258.325C0 375.736 73.8979 476.208 179.451 511.569C193.003 514.004 197.767 505.64 197.767 498.758C197.767 492.194 197.449 455.986 197.449 433.753C197.449 433.753 123.34 449.634 107.777 402.204C107.777 402.204 95.7074 371.395 78.3445 363.455C78.3445 363.455 54.1001 346.833 80.0385 347.151C80.0385 347.151 106.4 349.268 120.905 374.466C144.09 415.332 182.945 403.58 198.085 396.593C200.52 379.653 207.401 367.902 215.024 360.914C155.842 354.35 96.1309 345.775 96.1309 243.927C96.1309 214.812 104.177 200.202 121.116 181.569C118.364 174.687 109.365 146.314 123.869 109.682C145.996 102.801 196.92 138.268 196.92 138.268C218.094 132.339 240.856 129.268 263.407 129.268C285.958 129.268 308.72 132.339 329.894 138.268C329.894 138.268 380.818 102.695 402.945 109.682C417.449 146.42 408.45 174.687 405.698 181.569C422.637 200.308 433.012 214.918 433.012 243.927C433.012 346.092 370.654 354.244 311.472 360.914C321.213 369.278 329.471 385.159 329.471 410.038C329.471 445.717 329.153 489.865 329.153 498.546C329.153 505.428 334.023 513.792 347.469 511.357C453.34 476.208 525.12 375.736 525.12 258.325C525.12 111.482 406.015 0 259.172 0ZM102.907 365.149C101.53 366.208 101.848 368.643 103.648 370.654C105.342 372.348 107.777 373.089 109.153 371.713C110.529 370.654 110.212 368.219 108.412 366.208C106.718 364.514 104.283 363.773 102.907 365.149ZM91.4725 356.573C90.7314 357.95 91.7901 359.644 93.9076 360.702C95.6015 361.761 97.7189 361.444 98.46 359.961C99.2011 358.585 98.1424 356.891 96.025 355.832C93.9076 355.197 92.2136 355.515 91.4725 356.573ZM125.775 394.264C124.081 395.64 124.716 398.816 127.151 400.828C129.586 403.263 132.656 403.58 134.033 401.886C135.409 400.51 134.774 397.334 132.656 395.322C130.327 392.887 127.151 392.57 125.775 394.264ZM113.705 378.701C112.012 379.759 112.012 382.512 113.705 384.947C115.399 387.382 118.258 388.441 119.634 387.382C121.328 386.006 121.328 383.253 119.634 380.818C118.152 378.383 115.399 377.324 113.705 378.701Z" fill="#171515"/>
</g>
<defs>
<clipPath id="clip0">
<rect width="525.12" height="512" fill="white"/>
</clipPath>
</defs>
</svg>
