<svg viewBox="0 0 512 512" fill="none" xmlns="http://www.w3.org/2000/svg">
<path d="M402.643 46.779C390.669 60.721 385.093 92.0985 397.234 123.907C409.375 155.716 427.984 148.807 439.584 181.244C454.895 224.044 447.768 281.538 447.768 281.538C447.768 281.538 466.175 334.843 479.002 278.222C507.394 171.87 402.643 72.9685 402.643 46.779Z" fill="url(#paint0_radial)"/>
<path d="M256.536 488.319C379.154 488.319 478.486 388.449 478.486 265.305C478.486 142.16 379.154 42.2915 256.655 42.2915C134.156 42.2915 34.8246 142.161 34.8246 265.305C34.5871 388.568 134.036 488.319 256.536 488.319Z" fill="url(#paint1_radial)"/>
<path d="M422.838 402.818C418.04 406.203 413.007 409.241 407.776 411.909C414.705 401.758 421.097 391.25 426.926 380.429C431.656 375.194 435.989 370.105 439.52 364.603C441.239 361.899 443.177 358.563 445.228 354.693C457.689 332.243 471.428 295.912 471.818 258.593V258.503C471.827 257.584 471.832 256.665 471.825 255.745C471.889 246.378 470.932 237.031 468.969 227.871C469.069 228.587 469.157 229.302 469.247 230.017C469.136 229.467 469.043 228.911 468.925 228.36C469.108 229.377 469.255 230.36 469.413 231.352C471.96 252.96 470.146 274.038 461.072 289.577C460.929 289.804 460.782 290.016 460.637 290.238C465.342 266.621 466.916 240.545 461.681 214.438C461.681 214.438 459.588 201.746 443.993 163.218C435.017 141.041 419.077 122.859 404.993 109.614C392.648 94.341 381.436 84.0915 375.256 77.584C362.345 63.9895 356.934 53.7995 354.712 47.1505C352.786 46.1845 328.145 22.247 326.187 21.335C315.432 38.011 281.606 90.1725 297.697 138.908C304.989 160.994 323.43 183.917 342.73 196.776C343.578 197.744 354.215 209.297 359.273 235.354C364.496 262.276 361.75 283.282 351 314.346C338.357 341.599 305.967 368.54 275.638 371.296C210.8 377.187 187.064 338.742 187.064 338.742C210.232 348.005 235.848 346.067 251.426 336.464C267.126 326.752 276.623 319.551 284.331 322.39C291.931 325.217 297.981 317.012 292.552 308.507C288.359 302.049 282.36 296.967 275.301 293.894C268.242 290.82 260.435 289.89 252.852 291.22C237.135 293.775 222.739 306.224 202.146 294.167C200.813 293.394 199.523 292.549 198.281 291.636C196.924 290.744 202.694 292.995 201.348 291.98C197.34 289.803 190.248 285.059 188.408 283.371C188.101 283.09 191.517 284.461 191.211 284.18C171.956 268.324 174.361 257.613 174.966 250.895C175.45 245.52 178.948 238.633 184.841 235.839C187.688 237.393 189.461 238.579 189.461 238.579C189.461 238.579 188.247 236.098 187.591 234.791C187.821 234.691 188.041 234.718 188.27 234.62C190.602 235.746 195.758 238.67 198.473 240.453C202.009 242.948 203.136 245.171 203.136 245.171C203.136 245.171 204.067 244.659 203.379 242.484C203.129 241.592 202.055 238.758 198.553 235.897L198.772 235.921C200.868 237.116 202.854 238.495 204.705 240.042C205.693 236.451 207.469 232.703 207.078 225.996C206.84 221.281 206.95 220.06 206.119 218.239C205.375 216.675 206.536 216.065 207.828 217.689C207.607 216.416 207.236 215.174 206.724 213.989L206.735 213.866C208.347 208.248 240.859 193.636 243.225 191.928C247.113 189.177 250.374 185.632 252.791 181.528C254.6 178.646 255.96 174.604 256.291 168.472C256.469 164.05 254.412 161.105 221.538 157.663C212.547 156.778 207.272 150.263 204.275 144.251C203.728 142.956 203.17 141.783 202.612 140.611C202.08 139.24 201.652 137.831 201.333 136.395C206.708 120.959 215.738 107.907 229.017 98.045C229.74 97.386 226.126 98.214 226.849 97.555C227.692 96.786 233.202 94.5665 234.242 94.0665C235.513 93.4665 228.801 90.6165 222.876 91.3105C216.842 91.9905 215.56 92.7105 212.34 94.076C213.676 92.7455 217.926 91.0015 216.93 91.013C210.424 92.0105 202.34 95.792 195.43 100.075C195.416 99.3292 195.558 98.5888 195.847 97.901C192.627 99.267 184.717 104.795 182.415 109.472C182.514 108.576 182.558 107.674 182.548 106.772C180.094 108.818 177.881 111.136 175.95 113.681L175.83 113.79C157.151 106.265 140.713 105.778 126.803 109.152C123.76 106.096 122.274 108.33 115.35 93.118C114.879 92.202 115.711 94.0225 115.35 93.118C114.211 90.168 116.044 97.054 115.35 93.118C103.708 102.304 88.3897 112.715 81.0367 120.063C80.9457 120.356 89.6147 117.613 81.0367 120.063C78.0327 120.921 78.2367 122.703 77.7802 138.813C77.6702 140.035 77.7677 141.402 77.6687 142.502C71.7947 149.986 67.7942 156.323 66.2812 159.607C58.6847 172.697 50.3182 193.104 42.2082 225.383C45.7854 216.633 50.0982 208.203 55.1002 200.183C48.3562 217.316 41.8367 244.222 40.5332 285.655C42.1646 277.105 44.2565 268.649 46.7997 260.325C45.2076 294.7 51.1355 329.008 64.1697 360.856C68.8342 372.266 76.5497 389.583 89.6842 408.556C130.951 451.975 189.157 479.006 253.61 479.006C320.896 479.006 381.318 449.567 422.838 402.818Z" fill="url(#paint2_linear)"/>
<path d="M373.05 434.354C454.485 424.924 490.535 341.004 444.241 339.354C402.424 338.017 334.477 438.804 373.05 434.354Z" fill="url(#paint3_radial)"/>
<path d="M450.104 322.212C506.132 289.605 491.523 219.172 491.523 219.172C491.523 219.172 469.9 244.291 455.211 284.332C440.7 323.982 416.419 341.906 450.104 322.212Z" fill="url(#paint4_radial)"/>
<path d="M272.237 476.031C350.351 500.957 417.487 439.421 376.104 418.871C338.478 400.338 235.162 464.245 272.237 476.031Z" fill="url(#paint5_radial)"/>
<path d="M455.924 352.117C457.824 349.436 460.395 340.85 462.664 337.012C476.456 314.75 476.553 297 476.553 296.594C484.883 254.984 484.127 237.993 479.003 206.572C474.878 181.272 456.842 145.026 441.218 127.572C425.118 109.59 436.461 115.449 420.872 102.313C407.208 87.1665 393.961 72.1675 386.746 66.1355C334.608 22.547 335.785 13.2885 336.789 11.71C336.62 11.8955 336.371 12.171 336.053 12.5315C335.436 10.07 335 8 335 8C335 8 306.5 36.5 300.5 84C296.583 115.01 308.191 147.338 325 168C333.753 178.708 343.644 188.432 354.5 197V196.987C367.2 215.225 374.19 237.732 374.19 261.941C374.19 322.564 325.02 371.707 264.364 371.707C256.097 371.711 247.857 370.786 239.797 368.948C211.179 363.493 194.653 349.057 186.411 339.257C181.688 333.639 179.679 329.545 179.679 329.545C205.32 338.73 233.672 336.809 250.913 327.286C268.287 317.654 278.8 310.513 287.332 313.328C295.742 316.132 302.437 307.995 296.431 299.56C290.546 291.138 275.232 279.076 252.492 282.418C235.098 284.951 219.164 297.297 196.372 285.34C194.905 284.577 193.477 283.74 192.096 282.83C190.593 281.944 196.979 284.177 195.489 283.171C191.054 281.012 183.202 276.307 181.167 274.634C180.828 274.355 184.609 275.714 184.268 275.434C162.957 259.709 165.617 249.088 166.288 242.425C166.824 237.095 170.695 230.265 177.217 227.495C180.367 229.035 182.331 230.212 182.331 230.212C182.331 230.212 180.986 227.751 180.26 226.455C180.514 226.358 180.757 226.383 181.01 226.286C183.591 227.402 189.298 230.3 192.303 232.07C196.216 234.544 197.464 236.749 197.464 236.749C197.464 236.749 198.494 236.242 197.732 234.085C197.453 233.2 196.268 230.389 192.391 227.552L192.633 227.577C194.935 228.749 197.132 230.117 199.201 231.663C200.294 228.102 202.259 224.385 201.827 217.734C201.563 213.058 201.685 211.846 200.765 210.04C199.941 208.49 201.227 207.885 202.656 209.497C202.409 208.225 201.998 206.991 201.434 205.825L201.447 205.704C203.232 200.132 239.214 185.641 241.833 183.947C246.053 181.298 249.662 177.782 252.421 173.633C254.421 170.775 255.927 166.766 256.294 160.685C256.417 157.945 255.574 155.777 246.044 153.702C240.325 152.458 231.477 151.246 217.828 149.965C207.878 149.087 202.04 142.628 198.722 136.665C198.117 135.381 197.499 134.216 196.882 133.055C196.295 131.703 195.822 130.305 195.467 128.874C201.421 113.287 212.143 99.9779 226.106 90.843C226.906 90.189 222.906 91.0105 223.706 90.357C224.64 89.5945 230.738 87.3935 231.889 86.8975C233.296 86.3045 225.867 83.4775 219.31 84.1645C212.632 84.839 211.213 85.5525 207.648 86.9075C209.128 85.588 213.831 83.8575 212.729 83.87C205.529 84.859 196.579 88.6095 188.929 92.8565C188.915 92.1119 189.073 91.374 189.391 90.7005C185.827 92.055 177.073 97.5375 174.524 102.175C174.634 101.288 174.683 100.393 174.671 99.4985C171.987 101.499 169.538 103.797 167.371 106.349L167.238 106.457C146.564 98.995 128.372 98.512 112.977 101.857C109.609 98.827 104.194 94.2445 96.5305 79.1575C96.01 78.249 95.7305 81.035 95.3305 80.138C92.353 73.2315 90.554 61.916 90.8495 54.115C90.8495 54.115 84.6905 56.922 79.593 68.645C78.6465 70.7525 78.0395 71.915 77.433 73.0775C77.154 73.4165 78.0655 69.2275 77.92 69.4555C77.034 70.9555 74.742 73.0515 73.7345 75.7645C73.0425 77.775 72.072 78.901 71.4525 81.4085L71.307 81.6385C71.257 80.8995 71.4905 78.598 71.3205 79.07C68.9312 83.8973 66.875 88.8824 65.1665 93.9905C62.422 103.014 59.227 115.295 58.7205 131.273C58.5985 132.484 58.707 133.841 58.597 134.932C52.097 142.354 47.668 148.638 45.9935 151.895C37.59 164.881 28.33 185.118 19.3535 217.13C23.3472 208.385 28.123 200.02 33.6225 192.135C26.158 209.126 18.9425 235.809 17.5 276.9C19.3119 268.397 21.628 260.008 24.436 251.78C23.147 279.18 26.3385 313.15 43.6605 351.477C53.9455 374.02 77.621 419.801 135.471 455.526L135.465 455.53C135.465 455.53 155.146 470.18 188.974 481.159C191.474 482.066 194.007 482.96 196.591 483.826C195.78 483.498 194.995 483.154 194.234 482.8C216.75 489.546 240.128 492.982 263.634 493C351.224 493.074 377.056 457.9 377.056 457.9C377.056 457.9 376.965 457.969 376.8 458.089C378.036 456.925 379.227 455.715 380.371 454.46C366.552 467.51 335.014 468.376 323.221 467.435C343.333 461.528 356.567 456.531 382.309 446.675C385.321 445.558 388.402 444.285 391.55 442.855C391.891 442.705 392.234 442.542 392.576 442.387C393.201 442.096 393.819 441.821 394.449 441.515C406.992 435.605 418.785 428.222 429.581 419.522C455.431 398.872 461.055 378.743 463.995 365.471C463.585 366.743 462.307 369.709 461.41 371.629C454.753 385.87 439.99 394.609 423.956 402.103C431.586 392.093 438.661 381.672 445.15 370.887C450.383 365.695 452.017 357.574 455.924 352.117Z" fill="url(#paint6_radial)"/>
<path d="M424.461 401.491C435.001 389.87 444.466 376.579 451.635 361.507C470.085 322.716 498.611 258.217 476.144 190.854C458.388 137.613 434.008 108.5 403.054 80.061C352.782 33.878 338.741 13.2605 338.741 1C338.741 1 280.697 65.7045 305.87 133.191C331.044 200.677 382.6 198.202 416.71 268.628C456.847 351.5 384.235 441.934 324.188 467.246C327.864 466.43 457.673 437.055 464.495 362.806C464.34 364.171 461.415 384.707 424.461 401.491Z" fill="url(#paint7_radial)"/>
<path d="M256.296 160.686C256.493 156.301 254.218 153.357 217.955 149.955C203.036 148.578 197.323 134.788 195.581 128.984C190.276 142.767 188.086 157.23 189.263 174.723C190.068 186.183 197.768 198.484 201.448 205.706C201.448 205.706 202.266 204.642 202.644 204.249C209.574 197.034 238.612 186.04 241.34 184.479C244.347 182.58 255.791 174.217 256.296 160.686Z" fill="url(#paint8_linear)"/>
<path d="M96.6573 79.2355C96.1368 78.3265 95.8573 81.1125 95.4573 80.216C92.4798 73.3095 90.6683 62.116 91.0973 54.205C91.0973 54.205 84.9383 57.012 79.8408 68.735C78.8943 70.8425 78.2873 72.005 77.6808 73.1675C77.4018 73.5065 78.3133 69.3175 78.1678 69.5455C77.2823 71.0455 74.9903 73.1415 73.9948 75.733C73.1693 77.8525 72.3203 78.9905 71.6883 81.619C71.4938 82.3335 71.8843 78.4575 71.7143 78.9295C59.8588 101.842 57.5958 136.486 58.8453 135.021C84.0843 108.071 113.008 101.68 113.008 101.68C109.93 99.413 103.244 92.8675 96.6578 79.2355H96.6573Z" fill="url(#paint9_linear)"/>
<path d="M192.422 361.05C157.56 346.165 117.926 325.172 119.422 277.481C121.459 214.671 177.994 227.086 177.994 227.086C175.861 227.605 170.157 231.667 168.135 235.996C165.999 241.409 162.101 253.633 173.911 266.445C192.455 286.541 135.811 314.123 223.242 366.229C225.447 367.429 202.747 365.514 192.423 361.05H192.422Z" fill="url(#paint10_linear)"/>
<path d="M180.037 329.75C204.758 338.354 233.557 336.845 250.798 327.321C262.341 320.896 277.148 310.604 286.259 313.145C278.371 310.027 272.396 308.57 265.209 308.214C263.985 308.214 262.518 308.188 261.185 308.054C258.553 308.045 255.922 308.189 253.307 308.485C248.857 308.894 243.924 311.702 239.439 311.251C239.197 311.227 243.789 309.364 243.416 309.448C241.04 309.944 238.458 310.051 235.731 310.389C233.997 310.582 232.506 310.799 230.785 310.871C179.294 315.237 135.777 282.964 135.777 282.964C132.073 295.439 152.36 320.114 180.037 329.75H180.037Z" fill="url(#paint11_linear)"/>
<path d="M424.369 401.823C476.45 350.688 502.8 288.531 491.661 218.814C491.661 218.814 496.111 254.564 479.237 291.128C487.343 255.431 488.287 211.07 466.749 165.133C438.003 103.818 390.725 71.5545 372.676 58.0945C345.328 37.7 333.992 16.935 333.787 12.65C325.618 29.3885 300.904 86.75 331.132 136.15C359.452 182.432 404.065 196.17 435.296 238.624C492.834 316.833 424.369 401.823 424.369 401.823Z" fill="url(#paint12_linear)"/>
<path d="M416.907 268.776C398.706 231.175 375.989 214.775 354.5 197C357 200.5 357.616 201.736 359 204C377.913 224.158 405.803 273.328 385.555 335.053C347.44 451.241 194.983 396.528 179 381.159C185.466 448.404 298.018 480.582 371.3 436.974C413 397.5 446.734 330.394 416.907 268.776Z" fill="url(#paint13_linear)"/>
<defs>
<radialGradient id="paint0_radial" cx="0" cy="0" r="1" gradientUnits="userSpaceOnUse" gradientTransform="translate(471.595 124.098) rotate(2.55481) scale(171.954 252.742)">
<stop offset="0.045" stop-color="#FFEA00"/>
<stop offset="0.12" stop-color="#FFDE00"/>
<stop offset="0.254" stop-color="#FFBF00"/>
<stop offset="0.429" stop-color="#FF8E00"/>
<stop offset="0.769" stop-color="#FF272D"/>
<stop offset="0.872" stop-color="#E0255A"/>
<stop offset="0.953" stop-color="#CC2477"/>
<stop offset="1" stop-color="#C42482"/>
</radialGradient>
<radialGradient id="paint1_radial" cx="0" cy="0" r="1" gradientUnits="userSpaceOnUse" gradientTransform="translate(349.059 97.5666) scale(484.628)">
<stop stop-color="#00CCDA"/>
<stop offset="0.22" stop-color="#0083FF"/>
<stop offset="0.261" stop-color="#007AF9"/>
<stop offset="0.33" stop-color="#0060E8"/>
<stop offset="0.333" stop-color="#005FE7"/>
<stop offset="0.438" stop-color="#2639AD"/>
<stop offset="0.522" stop-color="#401E84"/>
<stop offset="0.566" stop-color="#4A1475"/>
</radialGradient>
<linearGradient id="paint2_linear" x1="287.835" y1="365.594" x2="192.116" y2="52.48" gradientUnits="userSpaceOnUse">
<stop stop-color="#000F43" stop-opacity="0.4"/>
<stop offset="0.485" stop-color="#001962" stop-opacity="0.173"/>
<stop offset="1" stop-color="#002079" stop-opacity="0"/>
</linearGradient>
<radialGradient id="paint3_radial" cx="0" cy="0" r="1" gradientUnits="userSpaceOnUse" gradientTransform="translate(513.858 318.726) rotate(5.76178) scale(163.493)">
<stop offset="0.003" stop-color="#FFEA00"/>
<stop offset="0.497" stop-color="#FF272D"/>
<stop offset="1" stop-color="#C42482"/>
</radialGradient>
<radialGradient id="paint4_radial" cx="0" cy="0" r="1" gradientUnits="userSpaceOnUse" gradientTransform="translate(514.879 161.263) rotate(5.76178) scale(273.02)">
<stop offset="0.003" stop-color="#FFE900"/>
<stop offset="0.157" stop-color="#FFAF0E"/>
<stop offset="0.316" stop-color="#FF7A1B"/>
<stop offset="0.472" stop-color="#FF4E26"/>
<stop offset="0.621" stop-color="#FF2C2E"/>
<stop offset="0.762" stop-color="#FF1434"/>
<stop offset="0.892" stop-color="#FF0538"/>
<stop offset="1" stop-color="#FF0039"/>
</radialGradient>
<radialGradient id="paint5_radial" cx="0" cy="0" r="1" gradientUnits="userSpaceOnUse" gradientTransform="translate(527.891 416.946) rotate(5.76178) scale(250.526)">
<stop offset="0.003" stop-color="#FF272D"/>
<stop offset="0.497" stop-color="#C42482"/>
<stop offset="0.986" stop-color="#620700"/>
</radialGradient>
<radialGradient id="paint6_radial" cx="0" cy="0" r="1" gradientUnits="userSpaceOnUse" gradientTransform="translate(375.095 198.021) scale(391.09)">
<stop offset="0.156" stop-color="#FFEA00"/>
<stop offset="0.231" stop-color="#FFDE00"/>
<stop offset="0.365" stop-color="#FFBF00"/>
<stop offset="0.541" stop-color="#FF8E00"/>
<stop offset="0.763" stop-color="#FF272D"/>
<stop offset="0.796" stop-color="#F92433"/>
<stop offset="0.841" stop-color="#E91C45"/>
<stop offset="0.893" stop-color="#CF0E62"/>
<stop offset="0.935" stop-color="#B5007F"/>
</radialGradient>
<radialGradient id="paint7_radial" cx="0" cy="0" r="1" gradientUnits="userSpaceOnUse" gradientTransform="translate(345.67 1.64449) scale(461.808)">
<stop offset="0.279" stop-color="#FFEA00"/>
<stop offset="0.402" stop-color="#FFDD00"/>
<stop offset="0.63" stop-color="#FFBA00"/>
<stop offset="0.856" stop-color="#FF9100"/>
<stop offset="0.933" stop-color="#FF6711"/>
<stop offset="0.994" stop-color="#FF4A1D"/>
</radialGradient>
<linearGradient id="paint8_linear" x1="107.05" y1="178.435" x2="284.825" y2="151.745" gradientUnits="userSpaceOnUse">
<stop stop-color="#C42482" stop-opacity="0.5"/>
<stop offset="0.474" stop-color="#FF272D" stop-opacity="0.5"/>
<stop offset="0.486" stop-color="#FF2C2C" stop-opacity="0.513"/>
<stop offset="0.675" stop-color="#FF7A1A" stop-opacity="0.72"/>
<stop offset="0.829" stop-color="#FFB20D" stop-opacity="0.871"/>
<stop offset="0.942" stop-color="#FFD605" stop-opacity="0.964"/>
<stop offset="1" stop-color="#FFE302"/>
</linearGradient>
<linearGradient id="paint9_linear" x1="89.313" y1="130.937" x2="69.1558" y2="58.6344" gradientUnits="userSpaceOnUse">
<stop stop-color="#891551" stop-opacity="0.6"/>
<stop offset="1" stop-color="#C42482" stop-opacity="0"/>
</linearGradient>
<linearGradient id="paint10_linear" x1="127.743" y1="235.483" x2="169.217" y2="293.365" gradientUnits="userSpaceOnUse">
<stop offset="0.005" stop-color="#891551" stop-opacity="0.5"/>
<stop offset="0.484" stop-color="#FF272D" stop-opacity="0.5"/>
<stop offset="1" stop-color="#FF272D" stop-opacity="0"/>
</linearGradient>
<linearGradient id="paint11_linear" x1="207.04" y1="336.816" x2="210.813" y2="299.616" gradientUnits="userSpaceOnUse">
<stop stop-color="#C42482"/>
<stop offset="0.083" stop-color="#C42482" stop-opacity="0.81"/>
<stop offset="0.206" stop-color="#C42482" stop-opacity="0.565"/>
<stop offset="0.328" stop-color="#C42482" stop-opacity="0.362"/>
<stop offset="0.447" stop-color="#C42482" stop-opacity="0.204"/>
<stop offset="0.562" stop-color="#C42482" stop-opacity="0.091"/>
<stop offset="0.673" stop-color="#C42482" stop-opacity="0.023"/>
<stop offset="0.773" stop-color="#C42482" stop-opacity="0"/>
</linearGradient>
<linearGradient id="paint12_linear" x1="327.766" y1="19.06" x2="480.594" y2="360.808" gradientUnits="userSpaceOnUse">
<stop stop-color="#FFF14F"/>
<stop offset="0.268" stop-color="#FFEE4C"/>
<stop offset="0.452" stop-color="#FFE643"/>
<stop offset="0.612" stop-color="#FFD834"/>
<stop offset="0.757" stop-color="#FFC41E"/>
<stop offset="0.892" stop-color="#FFAB02"/>
<stop offset="0.902" stop-color="#FFA900"/>
<stop offset="0.949" stop-color="#FFA000"/>
<stop offset="1" stop-color="#FF9100"/>
</linearGradient>
<linearGradient id="paint13_linear" x1="357.943" y1="215.605" x2="285.549" y2="409.98" gradientUnits="userSpaceOnUse">
<stop stop-color="#FF8E00"/>
<stop offset="0.04" stop-color="#FF8E00" stop-opacity="0.858"/>
<stop offset="0.084" stop-color="#FF8E00" stop-opacity="0.729"/>
<stop offset="0.13" stop-color="#FF8E00" stop-opacity="0.628"/>
<stop offset="0.178" stop-color="#FF8E00" stop-opacity="0.557"/>
<stop offset="0.227" stop-color="#FF8E00" stop-opacity="0.514"/>
<stop offset="0.282" stop-color="#FF8E00" stop-opacity="0.5"/>
<stop offset="0.389" stop-color="#FF8E00" stop-opacity="0.478"/>
<stop offset="0.524" stop-color="#FF8E00" stop-opacity="0.416"/>
<stop offset="0.676" stop-color="#FF8E00" stop-opacity="0.314"/>
<stop offset="0.838" stop-color="#FF8E00" stop-opacity="0.172"/>
<stop offset="1" stop-color="#FF8E00" stop-opacity="0"/>
</linearGradient>
</defs>
</svg>
