<svg viewBox="0 0 512 299" fill="none" xmlns="http://www.w3.org/2000/svg">
<path fill-rule="evenodd" clip-rule="evenodd" d="M134.179 33.2767C129.719 10.883 107.95 -3.65549 85.5563 0.804171C63.1625 5.26384 48.6241 27.0328 53.0837 49.4266C53.9354 53.7032 54.9224 57.953 56.0435 62.1693C57.9985 69.5223 55.0658 77.4251 48.4767 81.2293L20.6788 97.2784C0.904367 108.695 -5.87084 133.981 5.54591 153.755C16.9627 173.529 42.2481 180.305 62.0225 168.888L90.5454 152.42C96.752 148.837 104.581 150.156 109.649 155.224C114.919 160.494 116.303 168.636 112.577 175.09L96.343 203.208C84.9262 222.983 91.7014 248.268 111.476 259.685C131.25 271.102 156.536 264.326 167.952 244.552L184.491 215.905C188.08 209.69 195.534 206.914 202.468 208.767C209.409 210.621 214.477 216.755 214.477 223.94V257.114C214.477 279.948 232.988 298.458 255.821 298.458C278.655 298.458 297.165 279.948 297.165 257.114V224.088C297.165 216.817 302.294 210.61 309.318 208.728C316.342 206.846 323.899 209.653 327.534 215.951L344.048 244.552C355.464 264.326 380.75 271.102 400.524 259.685C420.298 248.268 427.074 222.983 415.657 203.208L399.144 174.607C395.508 168.31 396.851 160.366 401.993 155.224C407.135 150.082 415.079 148.739 421.376 152.375L449.978 168.888C469.752 180.305 495.037 173.529 506.454 153.755C517.871 133.981 511.096 108.695 491.321 97.2785L463.213 81.0503C456.629 77.2488 453.695 69.3537 455.642 62.0044C456.745 57.8421 457.718 53.6475 458.558 49.4266C463.018 27.0328 448.48 5.26384 426.086 0.804174C403.692 -3.6555 381.923 10.8829 377.464 33.2767C375.882 41.2164 373.524 49.0011 370.411 56.5165C364.178 71.5647 355.042 85.2378 343.524 96.7551C332.007 108.272 318.334 117.409 303.286 123.642C288.238 129.875 272.109 133.083 255.821 133.083C239.533 133.083 223.405 129.875 208.356 123.642C193.308 117.409 179.635 108.272 168.118 96.7551C156.6 85.2377 147.464 71.5647 141.231 56.5165C138.118 49.0011 135.76 41.2164 134.179 33.2767Z" fill="hsl(0, 0%, 100%)"/>
</svg>
