<svg viewBox="0 0 512 512" fill="none" xmlns="http://www.w3.org/2000/svg">
<rect width="512" height="512" rx="128" fill="url(#paint0_linear)"/>
<path fill-rule="evenodd" clip-rule="evenodd" d="M164.634 223.958C161.289 207.162 144.963 196.258 128.167 199.603C111.372 202.948 100.468 219.275 103.813 236.07C104.452 239.277 105.192 242.465 106.033 245.627C107.499 251.142 105.299 257.069 100.358 259.922L79.5091 271.959C64.6783 280.521 59.5969 299.485 68.1594 314.316C76.722 329.147 95.6861 334.228 110.517 325.666L131.909 313.315C136.564 310.628 142.436 311.617 146.237 315.418C150.189 319.37 151.228 325.477 148.433 330.318L136.257 351.406C127.695 366.237 132.776 385.201 147.607 393.764C162.438 402.326 181.402 397.245 189.964 382.414L202.369 360.929C205.06 356.268 210.651 354.186 215.851 355.575C221.057 356.966 224.858 361.566 224.858 366.955V391.836C224.858 408.961 238.741 422.844 255.866 422.844C272.991 422.844 286.874 408.961 286.874 391.836V367.066C286.874 361.612 290.721 356.958 295.988 355.546C301.256 354.135 306.924 356.24 309.651 360.963L322.036 382.414C330.598 397.245 349.562 402.326 364.393 393.764C379.224 385.201 384.305 366.237 375.743 351.406L363.358 329.955C360.631 325.232 361.639 319.274 365.495 315.418C369.351 311.562 375.309 310.554 380.032 313.281L401.483 325.666C416.314 334.229 435.278 329.147 443.841 314.316C452.403 299.486 447.322 280.521 432.491 271.959L411.41 259.788C406.471 256.937 404.271 251.015 405.732 245.503C406.559 242.382 407.288 239.236 407.919 236.07C411.264 219.275 400.36 202.948 383.564 199.603C366.769 196.258 350.442 207.162 347.098 223.958C345.912 229.912 344.143 235.751 341.808 241.387C337.133 252.674 330.281 262.928 321.643 271.566C313.005 280.204 302.75 287.056 291.464 291.731C280.178 296.406 268.082 298.812 255.866 298.812C243.65 298.812 231.553 296.406 220.267 291.731C208.981 287.056 198.726 280.204 190.088 271.566C181.45 262.928 174.598 252.674 169.923 241.387C167.589 235.751 165.82 229.912 164.634 223.958Z" fill="white"/>
<defs>
<linearGradient id="paint0_linear" x1="256" y1="0" x2="256" y2="512" gradientUnits="userSpaceOnUse">
<stop stop-color="#FFD500"/>
<stop offset="1" stop-color="#FF3355"/>
</linearGradient>
</defs>
</svg>
